<svg viewBox="0 0 882.391357421875 400" xmlns="http://www.w3.org/2000/svg"><g><g><g><g><g><line x1="60" y1="377.984375" x2="55" y2="377.984375" style="visibility: inherit;" fill="rgb(0, 0, 0)" stroke="rgb(204, 204, 204)" stroke-width="0.8695652484893799px"></line><line x1="60" y1="335.9861111111111" x2="55" y2="335.9861111111111" style="visibility: inherit;" fill="rgb(0, 0, 0)" stroke="rgb(204, 204, 204)" stroke-width="0.8695652484893799px"></line><line x1="60" y1="293.98784722222223" x2="55" y2="293.98784722222223" style="visibility: inherit;" fill="rgb(0, 0, 0)" stroke="rgb(204, 204, 204)" stroke-width="0.8695652484893799px"></line><line x1="60" y1="251.98958333333331" x2="55" y2="251.98958333333331" style="visibility: inherit;" fill="rgb(0, 0, 0)" stroke="rgb(204, 204, 204)" stroke-width="0.8695652484893799px"></line><line x1="60" y1="209.99131944444446" x2="55" y2="209.99131944444446" style="visibility: inherit;" fill="rgb(0, 0, 0)" stroke="rgb(204, 204, 204)" stroke-width="0.8695652484893799px"></line><line x1="60" y1="167.99305555555554" x2="55" y2="167.99305555555554" style="visibility: inherit;" fill="rgb(0, 0, 0)" stroke="rgb(204, 204, 204)" stroke-width="0.8695652484893799px"></line><line x1="60" y1="125.99479166666669" x2="55" y2="125.99479166666669" style="visibility: inherit;" fill="rgb(0, 0, 0)" stroke="rgb(204, 204, 204)" stroke-width="0.8695652484893799px"></line><line x1="60" y1="83.99652777777781" x2="55" y2="83.99652777777781" style="visibility: inherit;" fill="rgb(0, 0, 0)" stroke="rgb(204, 204, 204)" stroke-width="0.8695652484893799px"></line><line x1="60" y1="41.99826388888891" x2="55" y2="41.99826388888891" style="visibility: inherit;" fill="rgb(0, 0, 0)" stroke="rgb(204, 204, 204)" stroke-width="0.8695652484893799px"></line><line x1="60" y1="0" x2="55" y2="0" style="visibility: inherit;" fill="rgb(0, 0, 0)" stroke="rgb(204, 204, 204)" stroke-width="0.8695652484893799px"></line></g><g transform="translate(50, 0)"><text x="0" y="377.984375" dx="0em" dy="0.3em" style="text-anchor: end; visibility: hidden; font-family: Roboto, sans-serif; font-size: 10.434782981872559px; font-weight: 200;" fill="rgb(50, 49, 63)" stroke="none" stroke-width="0.8695652484893799px">-0.05</text><text x="0" y="335.9861111111111" dx="0em" dy="0.3em" style="text-anchor: end; visibility: inherit; font-family: Roboto, sans-serif; font-size: 10.434782981872559px; font-weight: 200;" fill="rgb(50, 49, 63)" stroke="none" stroke-width="0.8695652484893799px">0</text><text x="0" y="293.98784722222223" dx="0em" dy="0.3em" style="text-anchor: end; visibility: inherit; font-family: Roboto, sans-serif; font-size: 10.434782981872559px; font-weight: 200;" fill="rgb(50, 49, 63)" stroke="none" stroke-width="0.8695652484893799px">0.05</text><text x="0" y="251.98958333333331" dx="0em" dy="0.3em" style="text-anchor: end; visibility: inherit; font-family: Roboto, sans-serif; font-size: 10.434782981872559px; font-weight: 200;" fill="rgb(50, 49, 63)" stroke="none" stroke-width="0.8695652484893799px">0.1</text><text x="0" y="209.99131944444446" dx="0em" dy="0.3em" style="text-anchor: end; visibility: inherit; font-family: Roboto, sans-serif; font-size: 10.434782981872559px; font-weight: 200;" fill="rgb(50, 49, 63)" stroke="none" stroke-width="0.8695652484893799px">0.15</text><text x="0" y="167.99305555555554" dx="0em" dy="0.3em" style="text-anchor: end; visibility: inherit; font-family: Roboto, sans-serif; font-size: 10.434782981872559px; font-weight: 200;" fill="rgb(50, 49, 63)" stroke="none" stroke-width="0.8695652484893799px">0.2</text><text x="0" y="125.99479166666669" dx="0em" dy="0.3em" style="text-anchor: end; visibility: inherit; font-family: Roboto, sans-serif; font-size: 10.434782981872559px; font-weight: 200;" fill="rgb(50, 49, 63)" stroke="none" stroke-width="0.8695652484893799px">0.25</text><text x="0" y="83.99652777777781" dx="0em" dy="0.3em" style="text-anchor: end; visibility: inherit; font-family: Roboto, sans-serif; font-size: 10.434782981872559px; font-weight: 200;" fill="rgb(50, 49, 63)" stroke="none" stroke-width="0.8695652484893799px">0.3</text><text x="0" y="41.99826388888891" dx="0em" dy="0.3em" style="text-anchor: end; visibility: inherit; font-family: Roboto, sans-serif; font-size: 10.434782981872559px; font-weight: 200;" fill="rgb(50, 49, 63)" stroke="none" stroke-width="0.8695652484893799px">0.35</text><text x="0" y="0" dx="0em" dy="0.3em" style="text-anchor: end; visibility: hidden; font-family: Roboto, sans-serif; font-size: 10.434782981872559px; font-weight: 200;" fill="rgb(50, 49, 63)" stroke="none" stroke-width="0.8695652484893799px">0.4</text></g><line x1="60" y1="0" x2="60" y2="377.984375" fill="rgb(0, 0, 0)" stroke="rgb(204, 204, 204)" stroke-width="0.8695652484893799px"></line></g></g><g transform="translate(60, 0)" clip-path="url(#clip_0)"><clipPath id="clip_0"><rect width="822" height="377"></rect></clipPath><g><g><g><line x1="0" y1="0" x2="0" y2="377.984375" fill="rgb(0, 0, 0)" stroke="rgb(60, 60, 60)" stroke-width="0.8695652484893799px" opacity="0.25"></line><line x1="58.742235456194194" y1="0" x2="58.742235456194194" y2="377.984375" fill="rgb(0, 0, 0)" stroke="rgb(60, 60, 60)" stroke-width="0.8695652484893799px" opacity="0.25"></line><line x1="117.48447091238839" y1="0" x2="117.48447091238839" y2="377.984375" fill="rgb(0, 0, 0)" stroke="rgb(60, 60, 60)" stroke-width="0.8695652484893799px" opacity="0.25"></line><line x1="176.22670636858257" y1="0" x2="176.22670636858257" y2="377.984375" fill="rgb(0, 0, 0)" stroke="rgb(60, 60, 60)" stroke-width="0.8695652484893799px" opacity="0.25"></line><line x1="234.96894182477678" y1="0" x2="234.96894182477678" y2="377.984375" fill="rgb(0, 0, 0)" stroke="rgb(60, 60, 60)" stroke-width="0.8695652484893799px" opacity="0.25"></line><line x1="293.711177280971" y1="0" x2="293.711177280971" y2="377.984375" fill="rgb(0, 0, 0)" stroke="rgb(60, 60, 60)" stroke-width="0.8695652484893799px" opacity="0.25"></line><line x1="352.45341273716514" y1="0" x2="352.45341273716514" y2="377.984375" fill="rgb(0, 0, 0)" stroke="rgb(60, 60, 60)" stroke-width="0.8695652484893799px" opacity="0.25"></line><line x1="411.1956481933594" y1="0" x2="411.1956481933594" y2="377.984375" fill="rgb(0, 0, 0)" stroke="rgb(60, 60, 60)" stroke-width="0.8695652484893799px" opacity="0.25"></line><line x1="469.93788364955356" y1="0" x2="469.93788364955356" y2="377.984375" fill="rgb(0, 0, 0)" stroke="rgb(60, 60, 60)" stroke-width="0.8695652484893799px" opacity="0.25"></line><line x1="528.6801191057478" y1="0" x2="528.6801191057478" y2="377.984375" fill="rgb(0, 0, 0)" stroke="rgb(60, 60, 60)" stroke-width="0.8695652484893799px" opacity="0.25"></line><line x1="587.422354561942" y1="0" x2="587.422354561942" y2="377.984375" fill="rgb(0, 0, 0)" stroke="rgb(60, 60, 60)" stroke-width="0.8695652484893799px" opacity="0.25"></line><line x1="646.1645900181361" y1="0" x2="646.1645900181361" y2="377.984375" fill="rgb(0, 0, 0)" stroke="rgb(60, 60, 60)" stroke-width="0.8695652484893799px" opacity="0.25"></line><line x1="704.9068254743303" y1="0" x2="704.9068254743303" y2="377.984375" fill="rgb(0, 0, 0)" stroke="rgb(60, 60, 60)" stroke-width="0.8695652484893799px" opacity="0.25"></line><line x1="763.6490609305246" y1="0" x2="763.6490609305246" y2="377.984375" fill="rgb(0, 0, 0)" stroke="rgb(60, 60, 60)" stroke-width="0.8695652484893799px" opacity="0.25"></line><line x1="822.3912963867188" y1="0" x2="822.3912963867188" y2="377.984375" fill="rgb(0, 0, 0)" stroke="rgb(60, 60, 60)" stroke-width="0.8695652484893799px" opacity="0.25"></line></g><g><line x1="0" y1="377.984375" x2="822.3912963867188" y2="377.984375" fill="rgb(0, 0, 0)" stroke="rgb(60, 60, 60)" stroke-width="0.8695652484893799px" opacity="0.25"></line><line x1="0" y1="335.9861111111111" x2="822.3912963867188" y2="335.9861111111111" fill="rgb(0, 0, 0)" stroke="rgb(60, 60, 60)" stroke-width="0.8695652484893799px" opacity="0.25"></line><line x1="0" y1="293.98784722222223" x2="822.3912963867188" y2="293.98784722222223" fill="rgb(0, 0, 0)" stroke="rgb(60, 60, 60)" stroke-width="0.8695652484893799px" opacity="0.25"></line><line x1="0" y1="251.98958333333331" x2="822.3912963867188" y2="251.98958333333331" fill="rgb(0, 0, 0)" stroke="rgb(60, 60, 60)" stroke-width="0.8695652484893799px" opacity="0.25"></line><line x1="0" y1="209.99131944444446" x2="822.3912963867188" y2="209.99131944444446" fill="rgb(0, 0, 0)" stroke="rgb(60, 60, 60)" stroke-width="0.8695652484893799px" opacity="0.25"></line><line x1="0" y1="167.99305555555554" x2="822.3912963867188" y2="167.99305555555554" fill="rgb(0, 0, 0)" stroke="rgb(60, 60, 60)" stroke-width="0.8695652484893799px" opacity="0.25"></line><line x1="0" y1="125.99479166666669" x2="822.3912963867188" y2="125.99479166666669" fill="rgb(0, 0, 0)" stroke="rgb(60, 60, 60)" stroke-width="0.8695652484893799px" opacity="0.25"></line><line x1="0" y1="83.99652777777781" x2="822.3912963867188" y2="83.99652777777781" fill="rgb(0, 0, 0)" stroke="rgb(60, 60, 60)" stroke-width="0.8695652484893799px" opacity="0.25"></line><line x1="0" y1="41.99826388888891" x2="822.3912963867188" y2="41.99826388888891" fill="rgb(0, 0, 0)" stroke="rgb(60, 60, 60)" stroke-width="0.8695652484893799px" opacity="0.25"></line><line x1="0" y1="0" x2="822.3912963867188" y2="0" fill="rgb(0, 0, 0)" stroke="rgb(60, 60, 60)" stroke-width="0.8695652484893799px" opacity="0.25"></line></g></g></g><g><g><line x1="0" y1="335.9861111111111" x2="822.3912963867188" y2="335.9861111111111" fill="rgb(0, 0, 0)" stroke="rgb(153, 153, 153)" stroke-width="1.3043478727340698px"></line></g></g><g><g><line x1="58.742235456194194" y1="0" x2="58.742235456194194" y2="377.984375" fill="rgb(0, 0, 0)" stroke="rgb(153, 153, 153)" stroke-width="1.3043478727340698px"></line></g></g><g><g><g><g><g><path stroke="rgb(255, 112, 67)" stroke-width="1.7391304969787598px" d="M58.742235456194194,-305.38383190333843L88.11335318429128,110.58772828384987L117.48447091238839,242.19510686168405L146.8555886404855,288.1747793608354L176.22670636858257,307.3759405507097L205.5978240966797,315.09676097638163L234.96894182477678,318.63778993728573L264.3400595528739,320.29998194355625L293.711177280971,320.64237573806537L323.08229500906805,320.6898957606106L352.45341273716514,313.5337467904007L381.8245304652623,316.9046030061152L411.1956481933594,319.9218307602283L440.56676592145647,320.8424359232561L469.93788364955356,321.3834829826146L499.30900137765065,321.88823225081927L528.6801191057478,323.0486878581284L558.0512368338449,324.1440155116897L587.422354561942,324.6747967835909L616.7934722900391,324.54690878680043L58.742235456194194,-393.9334619340691L88.11335318429128,17.067768366900964L117.48447091238839,197.50272058206022L146.8555886404855,259.2705790483525L176.22670636858257,283.2425800638176L205.5978240966797,295.0627668346337L234.96894182477678,303.33827564383245L264.3400595528739,307.2276578265733L293.711177280971,311.1491847908144L323.08229500906805,314.3514131970773L352.45341273716514,316.9381541024L381.8245304652623,319.7730241463695L411.1956481933594,321.1015797236039L440.56676592145647,322.44641724474894L469.93788364955356,322.6629287577882L499.30900137765065,323.93599201371904L528.6801191057478,323.4012445915111L558.0512368338449,324.5005280666755L587.422354561942,325.1198891606008L616.7934722900391,325.34369022215935" style="fill: none;" fill="none"></path></g><g><path stroke="rgb(51, 187, 238)" stroke-width="1.7391304969787598px" d="M58.742235456194194,-148.2799045588407L88.11335318429128,121.03284976202619L117.48447091238839,231.41444726952037L146.8555886404855,282.0025005429084L176.22670636858257,295.70275905053256L205.5978240966797,308.9571256395904L234.96894182477678,316.31459738128603L264.3400595528739,319.79818821942325L293.711177280971,321.90804374436277L323.08229500906805,322.1670534333196L352.45341273716514,322.7091134167755L381.8245304652623,322.2820011546069L411.1956481933594,322.7414206514208L440.56676592145647,322.5949165552243L469.93788364955356,322.8910132917474L499.30900137765065,323.4906886189914L528.6801191057478,323.5851585010115L558.0512368338449,323.8686849199814L587.422354561942,316.64323025083667L616.7934722900391,318.2035137945163L646.1645900181361,320.79671052012003L675.5357077462332,322.46847929584374L704.9068254743303,322.8189679415498L734.2779432024275,322.5666329532828L763.6490609305246,323.7990675459727" style="fill: none;" fill="none"></path></g><g><path stroke="rgb(204, 51, 17)" stroke-width="1.7391304969787598px" d="M58.742235456194194,-241.17129827456347L88.11335318429128,121.66326453266309L117.48447091238839,231.66654665770554L146.8555886404855,270.10153057259197L176.22670636858257,292.2052383323684L205.5978240966797,305.20127138491307L234.96894182477678,308.17893322403364L264.3400595528739,314.560446283012L293.711177280971,317.9944803780728L323.08229500906805,319.6941562572591L352.45341273716514,321.38121227142835L381.8245304652623,323.10130113313573L411.1956481933594,324.1974777936118L440.56676592145647,324.9547832140278L469.93788364955356,324.9188201078037L499.30900137765065,324.90995651090486L528.6801191057478,326.2778718031064L558.0512368338449,326.573584929344L587.422354561942,326.72336165840477L616.7934722900391,326.5982695328553L646.1645900181361,326.6356132759099L675.5357077462332,326.43421414892606L704.9068254743303,326.3872521221696L734.2779432024275,326.950420574605L763.6490609305246,326.61046231503974" style="fill: none;" fill="none"></path></g><g><path stroke="rgb(187, 187, 187)" stroke-width="1.7391304969787598px" d="M58.742235456194194,-339.64583331222343L88.11335318429128,54.39037243892355L117.48447091238839,205.11431853651646L146.8555886404855,268.33782361676526L176.22670636858257,296.64317640482784L205.5978240966797,311.8395742880468L234.96894182477678,318.19251712403786L264.3400595528739,322.4816247405774L293.711177280971,324.9304527431199L323.08229500906805,325.7222913663305L352.45341273716514,326.1694577627586L381.8245304652623,326.64524613529824L411.1956481933594,327.04019260447984L440.56676592145647,327.01219124066944L469.93788364955356,327.133382972508L499.30900137765065,327.4241593807306L528.6801191057478,327.69851939698924L558.0512368338449,327.49189600081166L587.422354561942,327.38625655881367L616.7934722900391,327.4891455953157L646.1645900181361,327.792321782262L675.5357077462332,327.4070586348948L704.9068254743303,327.5638237797092L734.2779432024275,327.81195293620004L763.6490609305246,327.65437789754014" style="fill: none;" fill="none"></path></g><g><path stroke="rgb(204, 51, 17)" stroke-width="1.7391304969787598px" d="M58.742235456194194,-232.81971670604412L88.11335318429128,90.90191260706898L117.48447091238839,237.64069331575317L146.8555886404855,284.5172672056639L176.22670636858257,302.06205150766226L205.5978240966797,309.54896555257216L234.96894182477678,314.73489529529587L264.3400595528739,317.5992329039974L293.711177280971,318.666827740115L323.08229500906805,319.2239237095697L352.45341273716514,311.52120377793267L381.8245304652623,315.9896772898094L411.1956481933594,319.428561711372L440.56676592145647,321.06841722221776L469.93788364955356,322.6425828222799L499.30900137765065,323.4129370721629L528.6801191057478,324.4386430145791L558.0512368338449,324.545511665696L587.422354561942,325.23122418173705L616.7934722900391,325.2756037819858L646.1645900181361,325.27019578090415L675.5357077462332,326.0393303319634L704.9068254743303,326.12111591159794L734.2779432024275,325.79516272664085L763.6490609305246,325.51643931858524" style="fill: none;" fill="none"></path></g><g><path stroke="rgb(0, 119, 187)" stroke-width="1.7391304969787598px" d="M58.742235456194194,-514.6596104767589L88.11335318429128,10.352219992066175L117.48447091238839,184.6034819146115L146.8555886404855,258.6602409019924L176.22670636858257,295.5946846972097L205.5978240966797,313.79395857116594L234.96894182477678,322.1753726221786L264.3400595528739,325.09447058206507L293.711177280971,326.5081827405999L323.08229500906805,328.02115547233973L352.45341273716514,327.5115325966221L381.8245304652623,327.5088697231532L411.1956481933594,327.8448021612758L440.56676592145647,328.0173275137763L469.93788364955356,327.72588423811555L499.30900137765065,328.1278331980398L528.6801191057478,327.90350914721984L558.0512368338449,328.35538096430025L587.422354561942,327.85286684821705L616.7934722900391,327.8388175685398L646.1645900181361,327.6362341192133L675.5357077462332,328.0582004078013L704.9068254743303,327.84065909690474L734.2779432024275,328.0340423305811L763.6490609305246,328.2714685969452" style="fill: none;" fill="none"></path></g><g><path stroke="rgb(0, 153, 136)" stroke-width="1.7391304969787598px" d="M58.742235456194194,-265.53688680256414L88.11335318429128,72.29275656221895L117.48447091238839,212.0839872852694L146.8555886404855,273.4167091484223L176.22670636858257,293.7119702641653L205.5978240966797,309.09880383208593L234.96894182477678,316.84637353834887L264.3400595528739,320.4309763759715L293.711177280971,322.1934301745636L323.08229500906805,323.7140368434074L352.45341273716514,324.40207219899406L381.8245304652623,324.7511620459087L411.1956481933594,323.71287402372184L440.56676592145647,324.4484421483658L469.93788364955356,323.4622765573276L499.30900137765065,321.81920254809313L528.6801191057478,319.0987740304662L558.0512368338449,318.92715961176526L587.422354561942,319.84156445589315L616.7934722900391,320.43266617209736L646.1645900181361,320.717969746322L675.5357077462332,319.820178703934L704.9068254743303,319.29901811088985L734.2779432024275,320.1599140266125L763.6490609305246,319.3722292553995" style="fill: none;" fill="none"></path></g><g><path stroke="rgb(0, 119, 187)" stroke-width="1.7391304969787598px" d="M58.742235456194194,-55.164691541137L88.11335318429128,176.47723862977168L117.48447091238839,260.5200563484995L146.8555886404855,295.2118058000674L176.22670636858257,311.4937917380657L205.5978240966797,318.910664098809L234.96894182477678,322.6076964452981L264.3400595528739,324.0643496084142L293.711177280971,325.5664123162999L323.08229500906805,327.3997488250867L352.45341273716514,327.6310225811386L381.8245304652623,327.84184376627263L411.1956481933594,328.2150929682876L440.56676592145647,328.77767661947L469.93788364955356,328.6595969756987L499.30900137765065,329.1856062281893L528.6801191057478,328.78670734129764L558.0512368338449,328.86418918613396L587.422354561942,328.7183608009129L616.7934722900391,328.9538415568803L646.1645900181361,328.7766005308139L675.5357077462332,328.83800550485137L704.9068254743303,329.06260416799654L734.2779432024275,329.413907701481L763.6490609305246,329.1286113386908" style="fill: none;" fill="none"></path></g><g><path stroke="rgb(255, 112, 67)" stroke-width="1.7391304969787598px" d="M58.742235456194194,-270.74243161951506L88.11335318429128,88.81763017401728L117.48447091238839,230.32514305332734L146.8555886404855,283.20450682367283L176.22670636858257,303.4119977290552L205.5978240966797,313.89324671908844L234.96894182477678,318.67154321421646L264.3400595528739,322.3424062247617L293.711177280971,324.08255414799976L323.08229500906805,324.96494996321485L352.45341273716514,325.91016085048614L381.8245304652623,327.309991119829L411.1956481933594,327.92977131371435L440.56676592145647,327.5559889474005L469.93788364955356,328.61124885773364L499.30900137765065,328.1576688500168L528.6801191057478,328.3006304418225L558.0512368338449,328.22292702049486L587.422354561942,327.9674793850942L616.7934722900391,328.47677236677146L646.1645900181361,328.6072591760328L675.5357077462332,328.4901345477809L704.9068254743303,328.5955787534678L734.2779432024275,328.66381602525723L763.6490609305246,329.0245298680502" style="fill: none;" fill="none"></path></g><g><path stroke="rgb(238, 51, 119)" stroke-width="1.7391304969787598px" d="M58.742235456194194,-194.53782951376502L88.11335318429128,133.55090757816706L117.48447091238839,243.2454567505438L146.8555886404855,284.51532861427523L176.22670636858257,303.6012877774296L205.5978240966797,314.12108351577314L234.96894182477678,318.89399423234767L264.3400595528739,322.7289549183226L293.711177280971,324.37647309293385L323.08229500906805,326.3570658861039L352.45341273716514,327.3652078122536L381.8245304652623,327.88009043004746L411.1956481933594,328.0807268857525L440.56676592145647,328.5501614408616L469.93788364955356,328.67516157754807L499.30900137765065,329.2059011812814L528.6801191057478,329.4261879332672L558.0512368338449,329.2079667897128L587.422354561942,329.36652277514787L616.7934722900391,329.3853568650061L646.1645900181361,329.06534797688147L675.5357077462332,329.1622936367663L704.9068254743303,329.4547668662845L734.2779432024275,328.58946263521005L763.6490609305246,329.3867588130376" style="fill: none;" fill="none"></path></g></g></g></g><g opacity="0.20000000298023224"><g><g><g><path stroke="rgb(255, 112, 67)" stroke-width="1.7391304969787598px" d="M58.742235456194194,-305.38383190333843L88.11335318429128,221.65213485382912L117.48447091238839,286.71643535340104L146.8555886404855,304.60438137193626L176.22670636858257,314.33454283485963L205.5978240966797,317.905303684904L234.96894182477678,319.927165373733L264.3400595528739,320.9053875842753L293.711177280971,320.76709167526053L323.08229500906805,320.7072051173956L352.45341273716514,310.92707795413054L381.8245304652623,318.13245862294247L411.1956481933594,321.02087537769694L440.56676592145647,321.177772307859L469.93788364955356,321.58056287824485L499.30900137765065,322.07209044218894L528.6801191057478,323.4713913328144L558.0512368338449,324.5429957073906L587.422354561942,324.8681373014503L616.7934722900391,324.50032475522795L58.742235456194194,-655.6445928778915L88.11335318429128,166.77762988157986L117.48447091238839,263.227321184292L146.8555886404855,281.76992176390354L176.22670636858257,291.97453677749985L205.5978240966797,299.36834646329385L234.96894182477678,306.3526833546865L264.3400595528739,308.64439049068216L293.711177280971,312.5776263998899L323.08229500906805,315.51784564519767L352.45341273716514,317.8803912398095L381.8245304652623,320.8056439304621L411.1956481933594,321.5855147019417L440.56676592145647,322.9362830266667L469.93788364955356,322.74179447945465L499.30900137765065,324.3997135544196L528.6801191057478,323.20645937769183L558.0512368338449,324.90094919610095L587.422354561942,325.3454954526581L616.7934722900391,325.4252112091118" style="fill: none;" fill="none"></path></g><g><path stroke="rgb(51, 187, 238)" stroke-width="1.7391304969787598px" d="M58.742235456194194,-148.2799045588407L88.11335318429128,192.93935516569763L117.48447091238839,268.7553275087331L146.8555886404855,300.07878374856796L176.22670636858257,300.6678051329994L205.5978240966797,313.77856333499466L234.96894182477678,318.99363317648465L264.3400595528739,321.0669860089741L293.711177280971,322.67655244212233L323.08229500906805,322.2613987403456L352.45341273716514,322.90656191486374L381.8245304652623,322.12642282181577L411.1956481933594,322.90876715830785L440.56676592145647,322.5415514906765L469.93788364955356,322.9988684457882L499.30900137765065,323.70912424242124L528.6801191057478,323.61956976769983L558.0512368338449,323.9719612553858L587.422354561942,314.01131156520245L616.7934722900391,318.7718571862723L646.1645900181361,321.7412992318989L675.5357077462332,323.0774319058271L704.9068254743303,322.9466357019911L734.2779432024275,322.47471829862076L763.6490609305246,324.2479898328052" style="fill: none;" fill="none"></path></g><g><path stroke="rgb(204, 51, 17)" stroke-width="1.7391304969787598px" d="M58.742235456194194,-241.17129827456347L88.11335318429128,218.5400928021926L117.48447091238839,268.87944696450404L146.8555886404855,283.83524059491333L176.22670636858257,300.21573883201927L205.5978240966797,309.92873710190827L234.96894182477678,309.26317288312646L264.3400595528739,316.8847289095995L293.711177280971,319.24531724309134L323.08229500906805,320.3132699410457L352.45341273716514,321.9957322255941L381.8245304652623,323.7278543395417L411.1956481933594,324.5967671932433L440.56676592145647,325.230636611251L469.93788364955356,324.9057203134354L499.30900137765065,324.9067278883045L528.6801191057478,326.7761438123481L558.0512368338449,326.6813003518425L587.422354561942,326.7779188025484L616.7934722900391,326.55270391550016L646.1645900181361,326.64921597631314L675.5357077462332,326.36085321181196L704.9068254743303,326.3701458995994L734.2779432024275,327.1555583328591L763.6490609305246,326.48663031598943" style="fill: none;" fill="none"></path></g><g><path stroke="rgb(187, 187, 187)" stroke-width="1.7391304969787598px" d="M58.742235456194194,-339.64583331222343L88.11335318429128,159.5980393744798L117.48447091238839,256.10257153792514L146.8555886404855,290.9290464279863L176.22670636858257,306.90118583545296L205.5978240966797,317.3674495807823L234.96894182477678,320.50577932333624L264.3400595528739,324.04380885342835L293.711177280971,325.8224311734084L323.08229500906805,326.01072172707387L352.45341273716514,326.33234072048475L381.8245304652623,326.8185550480072L411.1956481933594,327.1840543963351L440.56676592145647,327.001991562804L469.93788364955356,327.177527845766L499.30900137765065,327.53007657145565L528.6801191057478,327.79845681075756L558.0512368338449,327.4166320898027L587.422354561942,327.3477767075011L616.7934722900391,327.5266235936045L646.1645900181361,327.9027556730046L675.5357077462332,327.2667240368771L704.9068254743303,327.6209264995802L734.2779432024275,327.902335589383L763.6490609305246,327.5969801685876" style="fill: none;" fill="none"></path></g><g><path stroke="rgb(204, 51, 17)" stroke-width="1.7391304969787598px" d="M58.742235456194194,-232.81971670604412L88.11335318429128,177.33558763367023L117.48447091238839,287.2808087029132L146.8555886404855,301.26735285861L176.22670636858257,308.4203740544876L205.5978240966797,312.27242195886924L234.96894182477678,316.6232194234617L264.3400595528739,318.6424855118126L293.711177280971,319.0556960334846L323.08229500906805,319.4268481271574L352.45341273716514,308.7154432936416L381.8245304652623,317.6173469230093L411.1956481933594,320.6811974822259L440.56676592145647,321.66574519773064L469.93788364955356,323.21598283767366L499.30900137765065,323.69354359904537L528.6801191057478,324.8122630506534L558.0512368338449,324.58443926439054L587.422354561942,325.48099940925994L616.7934722900391,325.2917693389657L646.1645900181361,325.26822588146507L675.5357077462332,326.3194925763463L704.9068254743303,326.1509068389682L734.2779432024275,325.67643216677243L763.6490609305246,325.4149125110125" style="fill: none;" fill="none"></path></g><g><path stroke="rgb(0, 119, 187)" stroke-width="1.7391304969787598px" d="M58.742235456194194,-514.6596104767589L88.11335318429128,150.53037872724235L117.48447091238839,243.5507670591275L146.8555886404855,285.12243626489203L176.22670636858257,308.97992230944027L205.5978240966797,320.41416667355224L234.96894182477678,325.2272509093616L264.3400595528739,326.1576680731248L293.711177280971,327.0231232553035L323.08229500906805,328.57226179377824L352.45341273716514,327.3258995034719L381.8245304652623,327.50789975471304L411.1956481933594,327.9671677127157L440.56676592145647,328.08017098922414L469.93788364955356,327.61972413733344L499.30900137765065,328.2742457110435L528.6801191057478,327.8217976580943L558.0512368338449,328.5199782018705L587.422354561942,327.6698228250413L616.7934722900391,327.833700027375L646.1645900181361,327.5624417850114L675.5357077462332,328.211904362853L704.9068254743303,327.7614182646955L734.2779432024275,328.1044834266132L763.6490609305246,328.35795265304233" style="fill: none;" fill="none"></path></g><g><path stroke="rgb(0, 153, 136)" stroke-width="1.7391304969787598px" d="M58.742235456194194,-265.53688680256414L88.11335318429128,162.49327134061605L117.48447091238839,259.3738229353395L146.8555886404855,295.33231131996337L176.22670636858257,301.0670801432441L205.5978240966797,314.6959524305356L234.96894182477678,319.6674535638756L264.3400595528739,321.73656488165983L293.711177280971,322.83539881061813L323.08229500906805,324.2679238567297L352.45341273716514,324.6526930744294L381.8245304652623,324.87832022231305L411.1956481933594,323.33467093295053L440.56676592145647,324.71637759501914L469.93788364955356,323.10305935358497L499.30900137765065,321.22070219424654L528.6801191057478,318.10784031461094L558.0512368338449,318.86464794766573L587.422354561942,320.1746423458939L616.7934722900391,320.6479788026902L646.1645900181361,320.82189342206243L675.5357077462332,319.4931524988626L704.9068254743303,319.1091819876391L734.2779432024275,320.4735009427079L763.6490609305246,319.08530997311595" style="fill: none;" fill="none"></path></g><g><path stroke="rgb(0, 119, 187)" stroke-width="1.7391304969787598px" d="M58.742235456194194,-55.164691541137L88.11335318429128,238.32563398540435L117.48447091238839,288.9508171117502L146.8555886404855,307.6079714441051L176.22670636858257,317.39446948449284L205.5978240966797,321.6086419872138L234.96894182477678,323.953876538131L264.3400595528739,324.59489363593616L293.711177280971,326.11353425993326L323.08229500906805,328.06754892360834L352.45341273716514,327.7152653903726L381.8245304652623,327.9186367113725L411.1956481933594,328.3510513910118L440.56676592145647,328.98260135289615L469.93788364955356,328.61658570067567L499.30900137765065,329.377208506585L528.6801191057478,328.6414058368925L558.0512368338449,328.8924124502098L587.422354561942,328.6652418665989L616.7934722900391,329.0396169482071L646.1645900181361,328.7120393385089L675.5357077462332,328.86037266456214L704.9068254743303,329.14441568649556L734.2779432024275,329.54187229007624L763.6490609305246,329.0246902897618" style="fill: none;" fill="none"></path></g><g><path stroke="rgb(255, 112, 67)" stroke-width="1.7391304969787598px" d="M58.742235456194194,-270.74243161951506L88.11335318429128,184.82016667289042L117.48447091238839,278.1955780777563L146.8555886404855,302.0995283435202L176.22670636858257,310.73529922007583L205.5978240966797,317.7059290253997L234.96894182477678,320.4114380857079L264.3400595528739,323.6794125179618L293.711177280971,324.7163979342634L323.08229500906805,325.28636614050225L352.45341273716514,326.2544594074069L381.8245304652623,327.81988811597046L411.1956481933594,328.15553023601467L440.56676592145647,327.41983630305106L469.93788364955356,328.99563411479016L499.30900137765065,327.9924493933213L528.6801191057478,328.35270512802526L558.0512368338449,328.1946230457462L587.422354561942,327.87443092854744L616.7934722900391,328.66228563567466L646.1645900181361,328.6547898418891L675.5357077462332,328.447471142947L704.9068254743303,328.63398748869076L734.2779432024275,328.6886718936989L763.6490609305246,329.15592222279196" style="fill: none;" fill="none"></path></g><g><path stroke="rgb(238, 51, 119)" stroke-width="1.7391304969787598px" d="M58.742235456194194,-194.53782951376502L88.11335318429128,221.15060038171293L117.48447091238839,280.353916095518L146.8555886404855,299.26200976522847L176.22670636858257,310.5181402383088L205.5978240966797,317.9477876724753L234.96894182477678,320.63192800986064L264.3400595528739,324.12572907104754L293.711177280971,324.97657676445994L323.08229500906805,327.0785046705666L352.45341273716514,327.7324293656857L381.8245304652623,328.06763966792886L411.1956481933594,328.1538100053181L440.56676592145647,328.72115601360565L469.93788364955356,328.7206936869382L499.30900137765065,329.3992265207667L528.6801191057478,329.5064288101308L558.0512368338449,329.12847832406663L587.422354561942,329.42427782031723L616.7934722900391,329.3922173042859L646.1645900181361,328.948782665655L675.5357077462332,329.1976067216084L704.9068254743303,329.56130213542684L734.2779432024275,328.27426996168083L763.6490609305246,329.6771791124645" style="fill: none;" fill="none"></path></g></g></g></g></g></g><g transform="translate(60, 377)" clip-path="url(#clip_1)"><clipPath id="clip_1"><rect width="822" height="22"></rect></clipPath><g><g><line x1="0" y1="0" x2="0" y2="5" style="visibility: inherit;" fill="rgb(0, 0, 0)" stroke="rgb(204, 204, 204)" stroke-width="0.8695652484893799px"></line><line x1="58.742235456194194" y1="0" x2="58.742235456194194" y2="5" style="visibility: inherit;" fill="rgb(0, 0, 0)" stroke="rgb(204, 204, 204)" stroke-width="0.8695652484893799px"></line><line x1="117.48447091238839" y1="0" x2="117.48447091238839" y2="5" style="visibility: inherit;" fill="rgb(0, 0, 0)" stroke="rgb(204, 204, 204)" stroke-width="0.8695652484893799px"></line><line x1="176.22670636858257" y1="0" x2="176.22670636858257" y2="5" style="visibility: inherit;" fill="rgb(0, 0, 0)" stroke="rgb(204, 204, 204)" stroke-width="0.8695652484893799px"></line><line x1="234.96894182477678" y1="0" x2="234.96894182477678" y2="5" style="visibility: inherit;" fill="rgb(0, 0, 0)" stroke="rgb(204, 204, 204)" stroke-width="0.8695652484893799px"></line><line x1="293.711177280971" y1="0" x2="293.711177280971" y2="5" style="visibility: inherit;" fill="rgb(0, 0, 0)" stroke="rgb(204, 204, 204)" stroke-width="0.8695652484893799px"></line><line x1="352.45341273716514" y1="0" x2="352.45341273716514" y2="5" style="visibility: inherit;" fill="rgb(0, 0, 0)" stroke="rgb(204, 204, 204)" stroke-width="0.8695652484893799px"></line><line x1="411.1956481933594" y1="0" x2="411.1956481933594" y2="5" style="visibility: inherit;" fill="rgb(0, 0, 0)" stroke="rgb(204, 204, 204)" stroke-width="0.8695652484893799px"></line><line x1="469.93788364955356" y1="0" x2="469.93788364955356" y2="5" style="visibility: inherit;" fill="rgb(0, 0, 0)" stroke="rgb(204, 204, 204)" stroke-width="0.8695652484893799px"></line><line x1="528.6801191057478" y1="0" x2="528.6801191057478" y2="5" style="visibility: inherit;" fill="rgb(0, 0, 0)" stroke="rgb(204, 204, 204)" stroke-width="0.8695652484893799px"></line><line x1="587.422354561942" y1="0" x2="587.422354561942" y2="5" style="visibility: inherit;" fill="rgb(0, 0, 0)" stroke="rgb(204, 204, 204)" stroke-width="0.8695652484893799px"></line><line x1="646.1645900181361" y1="0" x2="646.1645900181361" y2="5" style="visibility: inherit;" fill="rgb(0, 0, 0)" stroke="rgb(204, 204, 204)" stroke-width="0.8695652484893799px"></line><line x1="704.9068254743303" y1="0" x2="704.9068254743303" y2="5" style="visibility: inherit;" fill="rgb(0, 0, 0)" stroke="rgb(204, 204, 204)" stroke-width="0.8695652484893799px"></line><line x1="763.6490609305246" y1="0" x2="763.6490609305246" y2="5" style="visibility: inherit;" fill="rgb(0, 0, 0)" stroke="rgb(204, 204, 204)" stroke-width="0.8695652484893799px"></line><line x1="822.3912963867188" y1="0" x2="822.3912963867188" y2="5" style="visibility: inherit;" fill="rgb(0, 0, 0)" stroke="rgb(204, 204, 204)" stroke-width="0.8695652484893799px"></line></g><g transform="translate(0, 8)"><text x="0" y="0" dx="0em" dy="0.95em" style="text-anchor: middle; visibility: hidden; font-family: Roboto, sans-serif; font-size: 10.434782981872559px; font-weight: 200;" fill="rgb(50, 49, 63)" stroke="none" stroke-width="0.8695652484893799px">-2</text><text x="58.742235456194194" y="0" dx="0em" dy="0.95em" style="text-anchor: middle; visibility: inherit; font-family: Roboto, sans-serif; font-size: 10.434782981872559px; font-weight: 200;" fill="rgb(50, 49, 63)" stroke="none" stroke-width="0.8695652484893799px">0</text><text x="117.48447091238839" y="0" dx="0em" dy="0.95em" style="text-anchor: middle; visibility: inherit; font-family: Roboto, sans-serif; font-size: 10.434782981872559px; font-weight: 200;" fill="rgb(50, 49, 63)" stroke="none" stroke-width="0.8695652484893799px">2</text><text x="176.22670636858257" y="0" dx="0em" dy="0.95em" style="text-anchor: middle; visibility: inherit; font-family: Roboto, sans-serif; font-size: 10.434782981872559px; font-weight: 200;" fill="rgb(50, 49, 63)" stroke="none" stroke-width="0.8695652484893799px">4</text><text x="234.96894182477678" y="0" dx="0em" dy="0.95em" style="text-anchor: middle; visibility: inherit; font-family: Roboto, sans-serif; font-size: 10.434782981872559px; font-weight: 200;" fill="rgb(50, 49, 63)" stroke="none" stroke-width="0.8695652484893799px">6</text><text x="293.711177280971" y="0" dx="0em" dy="0.95em" style="text-anchor: middle; visibility: inherit; font-family: Roboto, sans-serif; font-size: 10.434782981872559px; font-weight: 200;" fill="rgb(50, 49, 63)" stroke="none" stroke-width="0.8695652484893799px">8</text><text x="352.45341273716514" y="0" dx="0em" dy="0.95em" style="text-anchor: middle; visibility: inherit; font-family: Roboto, sans-serif; font-size: 10.434782981872559px; font-weight: 200;" fill="rgb(50, 49, 63)" stroke="none" stroke-width="0.8695652484893799px">10</text><text x="411.1956481933594" y="0" dx="0em" dy="0.95em" style="text-anchor: middle; visibility: inherit; font-family: Roboto, sans-serif; font-size: 10.434782981872559px; font-weight: 200;" fill="rgb(50, 49, 63)" stroke="none" stroke-width="0.8695652484893799px">12</text><text x="469.93788364955356" y="0" dx="0em" dy="0.95em" style="text-anchor: middle; visibility: inherit; font-family: Roboto, sans-serif; font-size: 10.434782981872559px; font-weight: 200;" fill="rgb(50, 49, 63)" stroke="none" stroke-width="0.8695652484893799px">14</text><text x="528.6801191057478" y="0" dx="0em" dy="0.95em" style="text-anchor: middle; visibility: inherit; font-family: Roboto, sans-serif; font-size: 10.434782981872559px; font-weight: 200;" fill="rgb(50, 49, 63)" stroke="none" stroke-width="0.8695652484893799px">16</text><text x="587.422354561942" y="0" dx="0em" dy="0.95em" style="text-anchor: middle; visibility: inherit; font-family: Roboto, sans-serif; font-size: 10.434782981872559px; font-weight: 200;" fill="rgb(50, 49, 63)" stroke="none" stroke-width="0.8695652484893799px">18</text><text x="646.1645900181361" y="0" dx="0em" dy="0.95em" style="text-anchor: middle; visibility: inherit; font-family: Roboto, sans-serif; font-size: 10.434782981872559px; font-weight: 200;" fill="rgb(50, 49, 63)" stroke="none" stroke-width="0.8695652484893799px">20</text><text x="704.9068254743303" y="0" dx="0em" dy="0.95em" style="text-anchor: middle; visibility: inherit; font-family: Roboto, sans-serif; font-size: 10.434782981872559px; font-weight: 200;" fill="rgb(50, 49, 63)" stroke="none" stroke-width="0.8695652484893799px">22</text><text x="763.6490609305246" y="0" dx="0em" dy="0.95em" style="text-anchor: middle; visibility: inherit; font-family: Roboto, sans-serif; font-size: 10.434782981872559px; font-weight: 200;" fill="rgb(50, 49, 63)" stroke="none" stroke-width="0.8695652484893799px">24</text><text x="822.3912963867188" y="0" dx="0em" dy="0.95em" style="text-anchor: middle; visibility: hidden; font-family: Roboto, sans-serif; font-size: 10.434782981872559px; font-weight: 200;" fill="rgb(50, 49, 63)" stroke="none" stroke-width="0.8695652484893799px">26</text></g><line x1="0" y1="0" x2="822.3912963867188" y2="0" fill="rgb(0, 0, 0)" stroke="rgb(204, 204, 204)" stroke-width="0.8695652484893799px"></line></g></g></g></g></svg>